<?xml version="1.0" standalone="no"?>
<!DOCTYPE svg PUBLIC "-//W3C//DTD SVG 20010904//EN"
 "http://www.w3.org/TR/2001/REC-SVG-20010904/DTD/svg10.dtd">
<svg version="1.0" xmlns="http://www.w3.org/2000/svg"
 width="700.000000pt" height="700.000000pt" viewBox="0 0 700.000000 700.000000"
 preserveAspectRatio="xMidYMid meet">
<metadata>
Created by potrace 1.14, written by Peter Selinger 2001-2017
</metadata>
<g transform="translate(0.000000,700.000000) scale(0.100000,-0.100000)"
fill="#000000" stroke="none">
<path d="M3535 6777 c-54 -122 -114 -253 -131 -292 -18 -38 -51 -113 -74 -165
-24 -52 -65 -141 -91 -198 -27 -56 -49 -104 -49 -107 0 -2 -20 -48 -45 -101
-25 -53 -45 -97 -45 -99 0 -2 -22 -51 -50 -110 -27 -59 -50 -108 -50 -110 0
-2 -59 -133 -131 -292 -143 -315 -205 -451 -239 -528 -13 -27 -36 -79 -52
-115 -17 -36 -50 -108 -73 -162 l-43 -96 816 408 c449 225 818 407 820 405 3
-2 5 -3077 2 -3152 0 -10 -253 -13 -1231 -13 l-1230 0 -23 -52 c-13 -29 -42
-91 -64 -138 -22 -47 -105 -224 -185 -395 -80 -170 -166 -354 -191 -408 -25
-55 -46 -100 -46 -102 0 -2 -36 -78 -80 -170 -44 -92 -80 -168 -80 -170 0 -2
-25 -56 -56 -121 -55 -117 -89 -190 -134 -289 -13 -27 -38 -81 -56 -119 -19
-38 -34 -73 -34 -78 0 -4 1228 -8 2730 -8 l2730 0 0 33 c1 43 1 6916 0 6945
l0 22 -1257 0 -1258 -1 -100 -222z"/>
</g>
</svg>
